<svg width="256" height="319" viewBox="0 0 256 319" fill="none" xmlns="http://www.w3.org/2000/svg">
  <g clip-path="url(#clip0_107_5)">
  <path d="M10.8725 304.324L1.01146 41.5732C0.685791 32.8956 7.33949 25.5414 16.0063 24.9997L239.494 11.0317C248.316 10.4803 255.915 17.1849 256.466 26.0067C256.487 26.339 256.497 26.672 256.497 27.005V313.319C256.497 322.158 249.332 329.323 240.493 329.323C240.253 329.323 240.014 329.318 239.775 329.307L26.1476 319.712C17.8276 319.339 11.1848 312.647 10.8725 304.324Z" fill="#FF4785"/>
  <path d="M191.52 13.8186L190.002 51.2902C189.979 51.8499 190.152 52.4002 190.492 52.8465C191.3 53.9068 192.818 54.1143 193.882 53.31L208.086 42.5815L220.083 51.9918C220.532 52.3444 221.093 52.527 221.665 52.5071C223 52.4606 224.045 51.3448 223.998 50.0149L222.942 11.8L191.52 13.8186Z" fill="white"/>
  <path d="M235.655 130.049C234.81 125.115 230.87 120.879 225.778 119.305C209.47 113.453 187.524 135.56 175.766 149.503C176.238 129.105 168.113 120.649 162.587 117.266C153.394 111.648 141.133 113.345 129.713 121.839C119.564 129.646 108.77 143.182 100.272 155.831C100.686 145.021 99.6726 133.809 93.5171 126.655C88.7401 121.11 80.8067 118.253 72.8118 119.19C64.0105 120.223 56.5033 125.579 52.1641 133.97L51.6611 134.999C50.6358 137.065 49.4838 139.392 48.8924 142.018C42.4528 159.329 40.5289 210.086 54.7292 238.003C60.1475 248.655 67.4089 255.279 76.5673 257.748C79.336 258.301 81.9241 258.559 84.3548 258.559C105.579 258.559 114.756 238.702 124.41 217.812C126.288 213.746 128.196 209.618 130.235 205.509C132.274 229.317 144.389 237.335 150.222 239.835C160.89 244.393 173.22 241.256 181.499 232.009C186.169 227.42 189.847 219.855 194.939 209.387C199.635 199.734 205.472 187.722 214.335 173.28C218.805 165.999 222.691 160.289 225.813 155.704C233.439 144.495 237.644 138.321 235.655 130.049Z" fill="white"/>
  </g>
  <defs>
  <clipPath id="clip0_107_5">
  <rect width="256" height="319" fill="white"/>
  </clipPath>
  </defs>
  </svg>
  